<mxfile host="app.diagrams.net" modified="2022-10-19T09:26:26.901Z" agent="5.0 (Macintosh; Intel Mac OS X 10_15_7) AppleWebKit/537.36 (KHTML, like Gecko) Chrome/106.0.0.0 Safari/537.36" etag="tJECMkAduxKB50IH3QeL" version="20.4.1" type="github">
  <diagram id="TnmLhH6R90L0_d0x9lKS" name="Страница 1">
    <mxGraphModel dx="446" dy="268" grid="1" gridSize="10" guides="1" tooltips="1" connect="1" arrows="1" fold="1" page="1" pageScale="1" pageWidth="827" pageHeight="1169" math="0" shadow="0">
      <root>
        <mxCell id="0" />
        <mxCell id="1" parent="0" />
        <mxCell id="ssnKLUL35z2nH3g8nf3l-3" style="edgeStyle=orthogonalEdgeStyle;rounded=0;orthogonalLoop=1;jettySize=auto;html=1;exitX=0.5;exitY=0.5;exitDx=0;exitDy=0;exitPerimeter=0;endArrow=none;endFill=0;" edge="1" parent="1" source="ssnKLUL35z2nH3g8nf3l-1" target="ssnKLUL35z2nH3g8nf3l-2">
          <mxGeometry relative="1" as="geometry" />
        </mxCell>
        <mxCell id="ssnKLUL35z2nH3g8nf3l-23" style="edgeStyle=orthogonalEdgeStyle;rounded=0;orthogonalLoop=1;jettySize=auto;html=1;exitX=0.5;exitY=0.5;exitDx=0;exitDy=0;exitPerimeter=0;entryX=0;entryY=0.5;entryDx=0;entryDy=0;endArrow=classic;endFill=1;" edge="1" parent="1" source="ssnKLUL35z2nH3g8nf3l-1" target="ssnKLUL35z2nH3g8nf3l-21">
          <mxGeometry relative="1" as="geometry">
            <Array as="points">
              <mxPoint x="180" y="275" />
              <mxPoint x="180" y="535" />
            </Array>
          </mxGeometry>
        </mxCell>
        <mxCell id="ssnKLUL35z2nH3g8nf3l-1" value="User" style="shape=umlActor;verticalLabelPosition=bottom;verticalAlign=top;html=1;" vertex="1" parent="1">
          <mxGeometry x="120" y="245" width="30" height="60" as="geometry" />
        </mxCell>
        <mxCell id="ssnKLUL35z2nH3g8nf3l-4" style="edgeStyle=orthogonalEdgeStyle;rounded=0;orthogonalLoop=1;jettySize=auto;html=1;exitX=1;exitY=0.5;exitDx=0;exitDy=0;endArrow=classic;endFill=1;dashed=1;entryX=0;entryY=0.5;entryDx=0;entryDy=0;" edge="1" parent="1" source="ssnKLUL35z2nH3g8nf3l-2" target="ssnKLUL35z2nH3g8nf3l-6">
          <mxGeometry relative="1" as="geometry">
            <mxPoint x="530" y="275" as="targetPoint" />
          </mxGeometry>
        </mxCell>
        <mxCell id="ssnKLUL35z2nH3g8nf3l-5" value="&amp;lt;&amp;lt;include&amp;gt;&amp;gt;" style="edgeLabel;html=1;align=center;verticalAlign=middle;resizable=0;points=[];" vertex="1" connectable="0" parent="ssnKLUL35z2nH3g8nf3l-4">
          <mxGeometry x="0.2567" y="2" relative="1" as="geometry">
            <mxPoint as="offset" />
          </mxGeometry>
        </mxCell>
        <mxCell id="ssnKLUL35z2nH3g8nf3l-14" style="edgeStyle=orthogonalEdgeStyle;rounded=0;orthogonalLoop=1;jettySize=auto;html=1;exitX=1;exitY=0;exitDx=0;exitDy=0;dashed=1;endArrow=classic;endFill=1;" edge="1" parent="1" source="ssnKLUL35z2nH3g8nf3l-2">
          <mxGeometry relative="1" as="geometry">
            <mxPoint x="489.9999999999998" y="190" as="targetPoint" />
          </mxGeometry>
        </mxCell>
        <mxCell id="ssnKLUL35z2nH3g8nf3l-15" value="&amp;lt;&amp;lt;include&amp;gt;&amp;gt;" style="edgeLabel;html=1;align=center;verticalAlign=middle;resizable=0;points=[];" vertex="1" connectable="0" parent="ssnKLUL35z2nH3g8nf3l-14">
          <mxGeometry x="-0.1867" y="-2" relative="1" as="geometry">
            <mxPoint as="offset" />
          </mxGeometry>
        </mxCell>
        <mxCell id="ssnKLUL35z2nH3g8nf3l-2" value="Create Order" style="ellipse;whiteSpace=wrap;html=1;" vertex="1" parent="1">
          <mxGeometry x="310" y="250" width="90" height="50" as="geometry" />
        </mxCell>
        <mxCell id="ssnKLUL35z2nH3g8nf3l-6" value="Clean Cart" style="ellipse;whiteSpace=wrap;html=1;" vertex="1" parent="1">
          <mxGeometry x="540" y="250" width="90" height="50" as="geometry" />
        </mxCell>
        <mxCell id="ssnKLUL35z2nH3g8nf3l-12" value="&amp;lt;&amp;lt;extend&amp;gt;&amp;gt;" style="edgeStyle=orthogonalEdgeStyle;rounded=0;orthogonalLoop=1;jettySize=auto;html=1;entryX=0.662;entryY=1.046;entryDx=0;entryDy=0;entryPerimeter=0;dashed=1;endArrow=classic;endFill=1;" edge="1" parent="1" source="ssnKLUL35z2nH3g8nf3l-9" target="ssnKLUL35z2nH3g8nf3l-2">
          <mxGeometry relative="1" as="geometry" />
        </mxCell>
        <mxCell id="ssnKLUL35z2nH3g8nf3l-9" value="Success" style="ellipse;whiteSpace=wrap;html=1;" vertex="1" parent="1">
          <mxGeometry x="380" y="420" width="90" height="50" as="geometry" />
        </mxCell>
        <mxCell id="ssnKLUL35z2nH3g8nf3l-11" style="edgeStyle=orthogonalEdgeStyle;rounded=0;orthogonalLoop=1;jettySize=auto;html=1;exitX=0.5;exitY=0;exitDx=0;exitDy=0;dashed=1;endArrow=classic;endFill=1;" edge="1" parent="1" source="ssnKLUL35z2nH3g8nf3l-10" target="ssnKLUL35z2nH3g8nf3l-2">
          <mxGeometry relative="1" as="geometry" />
        </mxCell>
        <mxCell id="ssnKLUL35z2nH3g8nf3l-13" value="&amp;lt;&amp;lt;extend&amp;gt;&amp;gt;" style="edgeLabel;html=1;align=center;verticalAlign=middle;resizable=0;points=[];" vertex="1" connectable="0" parent="ssnKLUL35z2nH3g8nf3l-11">
          <mxGeometry x="0.003" y="1" relative="1" as="geometry">
            <mxPoint as="offset" />
          </mxGeometry>
        </mxCell>
        <mxCell id="ssnKLUL35z2nH3g8nf3l-10" value="Failure" style="ellipse;whiteSpace=wrap;html=1;" vertex="1" parent="1">
          <mxGeometry x="230" y="420" width="90" height="50" as="geometry" />
        </mxCell>
        <mxCell id="ssnKLUL35z2nH3g8nf3l-16" value="Payment" style="ellipse;whiteSpace=wrap;html=1;" vertex="1" parent="1">
          <mxGeometry x="450" y="140" width="90" height="50" as="geometry" />
        </mxCell>
        <mxCell id="ssnKLUL35z2nH3g8nf3l-22" style="edgeStyle=orthogonalEdgeStyle;rounded=0;orthogonalLoop=1;jettySize=auto;html=1;entryX=1;entryY=0.5;entryDx=0;entryDy=0;endArrow=classic;endFill=1;" edge="1" parent="1" source="ssnKLUL35z2nH3g8nf3l-17" target="ssnKLUL35z2nH3g8nf3l-21">
          <mxGeometry relative="1" as="geometry" />
        </mxCell>
        <mxCell id="ssnKLUL35z2nH3g8nf3l-17" value="Administrator" style="shape=umlActor;verticalLabelPosition=bottom;verticalAlign=top;html=1;" vertex="1" parent="1">
          <mxGeometry x="600" y="505" width="30" height="60" as="geometry" />
        </mxCell>
        <mxCell id="ssnKLUL35z2nH3g8nf3l-24" style="edgeStyle=orthogonalEdgeStyle;rounded=0;orthogonalLoop=1;jettySize=auto;html=1;exitX=0.5;exitY=1;exitDx=0;exitDy=0;endArrow=classic;endFill=1;entryX=0.5;entryY=1;entryDx=0;entryDy=0;dashed=1;" edge="1" parent="1" target="ssnKLUL35z2nH3g8nf3l-21">
          <mxGeometry relative="1" as="geometry">
            <mxPoint x="260" y="630" as="sourcePoint" />
          </mxGeometry>
        </mxCell>
        <mxCell id="ssnKLUL35z2nH3g8nf3l-28" value="&amp;lt;&amp;lt;extend&amp;gt;&amp;gt;" style="edgeLabel;html=1;align=center;verticalAlign=middle;resizable=0;points=[];" vertex="1" connectable="0" parent="ssnKLUL35z2nH3g8nf3l-24">
          <mxGeometry x="0.4015" y="-1" relative="1" as="geometry">
            <mxPoint as="offset" />
          </mxGeometry>
        </mxCell>
        <mxCell id="ssnKLUL35z2nH3g8nf3l-26" value="&amp;lt;&amp;lt;extend&amp;gt;&amp;gt;" style="edgeStyle=orthogonalEdgeStyle;rounded=0;orthogonalLoop=1;jettySize=auto;html=1;exitX=1;exitY=1;exitDx=0;exitDy=0;endArrow=classic;endFill=1;entryX=1;entryY=1;entryDx=0;entryDy=0;dashed=1;" edge="1" parent="1" target="ssnKLUL35z2nH3g8nf3l-21">
          <mxGeometry relative="1" as="geometry">
            <mxPoint x="460" y="670" as="sourcePoint" />
            <Array as="points">
              <mxPoint x="400" y="670" />
              <mxPoint x="400" y="553" />
            </Array>
          </mxGeometry>
        </mxCell>
        <mxCell id="ssnKLUL35z2nH3g8nf3l-21" value="Update Order Status" style="ellipse;whiteSpace=wrap;html=1;" vertex="1" parent="1">
          <mxGeometry x="300" y="510" width="90" height="50" as="geometry" />
        </mxCell>
        <mxCell id="ssnKLUL35z2nH3g8nf3l-25" value="Cancelled" style="ellipse;whiteSpace=wrap;html=1;" vertex="1" parent="1">
          <mxGeometry x="220" y="630" width="90" height="50" as="geometry" />
        </mxCell>
        <mxCell id="ssnKLUL35z2nH3g8nf3l-27" value="Finished" style="ellipse;whiteSpace=wrap;html=1;" vertex="1" parent="1">
          <mxGeometry x="460" y="640" width="90" height="50" as="geometry" />
        </mxCell>
      </root>
    </mxGraphModel>
  </diagram>
</mxfile>
